HIERARCHY
ROOT Hips
{
 OFFSET 0.000000 0.000000 0.000000
 CHANNELS 6 Xposition Yposition Zposition Yrotation Xrotation Zrotation
 JOINT Chest
 {
  OFFSET 0.000000 10.452742 -1.161416
  CHANNELS 3 Yrotation Xrotation Zrotation
  JOINT Chest2
  {
   OFFSET 0.000000 11.642015 0.000000
   CHANNELS 3 Yrotation Xrotation Zrotation
   JOINT Chest3
   {
    OFFSET 0.000000 10.628653 0.003331
    CHANNELS 3 Yrotation Xrotation Zrotation
    JOINT Chest4
    {
     OFFSET 0.000000 10.616789 0.003334
     CHANNELS 3 Yrotation Xrotation Zrotation
     JOINT Neck
     {
      OFFSET 0.000000 14.863263 0.000000
      CHANNELS 3 Yrotation Xrotation Zrotation
      JOINT Head
      {
       OFFSET 0.000000 9.883432 -0.007164
       CHANNELS 3 Yrotation Xrotation Zrotation
       End Site
       {
        OFFSET 0.000000 18.374284 -0.000963
       }
      }
     }
     JOINT RightCollar
     {
      OFFSET -3.226349 8.329632 0.000000
      CHANNELS 3 Yrotation Xrotation Zrotation
      JOINT RightShoulder
      {
       OFFSET -15.005172 0.000000 0.000000
       CHANNELS 3 Yrotation Xrotation Zrotation
       JOINT RightElbow
       {
        OFFSET -32.060772 0.000000 0.000000
        CHANNELS 3 Yrotation Xrotation Zrotation
        JOINT RightWrist
        {
         OFFSET -26.219035 0.000000 0.000000
         CHANNELS 3 Yrotation Xrotation Zrotation
         End Site
         {
          OFFSET -19.605622 0.000000 0.000000
         }
        }
       }
      }
     }
     JOINT LeftCollar
     {
      OFFSET 3.226349 8.329632 0.000000
      CHANNELS 3 Yrotation Xrotation Zrotation
      JOINT LeftShoulder
      {
       OFFSET 15.005172 0.000000 0.000000
       CHANNELS 3 Yrotation Xrotation Zrotation
       JOINT LeftElbow
       {
        OFFSET 32.060772 0.000000 0.000000
        CHANNELS 3 Yrotation Xrotation Zrotation
        JOINT LeftWrist
        {
         OFFSET 26.219035 0.000000 0.000000
         CHANNELS 3 Yrotation Xrotation Zrotation
         End Site
         {
          OFFSET 19.605622 0.000000 0.000000
         }
        }
       }
      }
     }
    }
   }
  }
 }
 JOINT RightHip
 {
  OFFSET -8.580723 -0.006978 0.000775
  CHANNELS 3 Yrotation Xrotation Zrotation
  JOINT RightKnee
  {
   OFFSET 0.000000 -44.536629 0.000787
   CHANNELS 3 Yrotation Xrotation Zrotation
   JOINT RightAnkle
   {
    OFFSET 0.000000 -43.528603 0.001328
    CHANNELS 3 Yrotation Xrotation Zrotation
    JOINT RightToe
    {
     OFFSET 0.000000 -7.259351 16.426635
     CHANNELS 3 Yrotation Xrotation Zrotation
     End Site
     {
      OFFSET 0.000000 -1.634445 7.029403
     }
    }
   }
  }
 }
 JOINT LeftHip
 {
  OFFSET 8.580723 -0.009328 0.001036
  CHANNELS 3 Yrotation Xrotation Zrotation
  JOINT LeftKnee
  {
   OFFSET 0.000000 -44.536629 0.000787
   CHANNELS 3 Yrotation Xrotation Zrotation
   JOINT LeftAnkle
   {
    OFFSET 0.000000 -43.528603 0.001328
    CHANNELS 3 Yrotation Xrotation Zrotation
    JOINT LeftToe
    {
     OFFSET 0.000000 -7.259351 16.426635
     CHANNELS 3 Yrotation Xrotation Zrotation
     End Site
     {
      OFFSET 0.000000 -1.634445 7.029403
     }
    }
   }
  }
 }
}
MOTION
Frames: 7
Frame Time: 0.004167
122.924478 96.562891 1196.686286 -2.369021 24.030646 -1.714065 -0.202015 4.129507 1.618928 -0.177493 -3.991269 0.722221 -0.177227 1.829124 0.704181 -0.080884 7.208066 0.532656 4.908218 4.723985 -2.138184 11.235735 -26.826044 -7.156660 -13.808420 20.227614 -0.407406 -21.103251 6.574626 76.770843 56.251445 -23.533987 4.457560 1.779981 -5.357700 -11.128509 -6.197954 -4.013237 -7.210038 7.253872 -7.632626 -67.381413 -51.371903 -24.512941 -18.106492 -10.157547 -2.374034 12.462854 -4.702201 -54.281535 8.426698 1.029255 22.869765 0.042094 -2.943809 -14.380312 6.595323 0.000524 0.009405 -0.007095 6.543107 -29.489151 -0.104352 9.222429 75.249401 7.115795 9.520713 25.174914 1.651625 -0.000000 0.000000 0.000000
123.068097 96.340334 1198.343518 -1.936340 23.971888 -1.516400 -0.244324 4.214298 1.582888 -0.194663 -3.953749 0.706531 -0.194378 1.866619 0.686735 -0.095068 7.236170 0.519549 4.817658 4.605168 -2.142451 11.072825 -27.055347 -7.134032 -13.407712 20.212785 0.007271 -20.712067 6.236985 77.634478 56.705654 -23.880290 4.161355 1.859261 -5.285637 -11.068413 -6.204146 -3.629820 -7.424479 6.613883 -7.496175 -67.845752 -48.701526 -23.714233 -17.961244 -9.838245 -3.022093 12.859863 -4.286414 -53.567896 7.991519 1.054215 22.963051 0.086699 -3.333660 -13.745417 5.635035 0.001844 0.034163 -0.025851 6.658827 -30.967590 0.003462 10.401153 76.886265 8.645944 10.720474 24.170511 3.389074 -0.000000 -0.000000 -0.000000
123.201054 96.087816 1200.011983 -1.415060 23.914644 -1.302036 -0.300690 4.283721 1.552110 -0.218309 -3.923095 0.693330 -0.217992 1.897245 0.671123 -0.113954 7.259111 0.507844 4.716835 4.494037 -2.144900 10.886398 -27.271809 -7.100250 -12.945445 20.157444 0.451100 -20.271315 5.938319 78.509194 57.156039 -24.238794 3.851565 1.917999 -5.189666 -10.984499 -6.224697 -3.242530 -7.651011 5.840721 -7.384759 -68.286593 -45.852125 -22.854238 -17.715482 -9.505541 -3.802448 13.306580 -3.652726 -52.852779 7.346792 1.013661 23.143307 0.196150 -3.801900 -12.982119 4.533601 0.003557 0.069129 -0.052426 6.777136 -32.518482 0.098060 11.687651 78.458562 10.368808 11.914949 23.043243 5.236837 -0.000000 0.000000 0.000000
123.327422 95.812086 1201.689438 -0.832873 23.858334 -1.076305 -0.364997 4.339216 1.524585 -0.245609 -3.898641 0.681671 -0.245253 1.921673 0.656683 -0.135479 7.277402 0.497034 4.608857 4.389445 -2.146168 10.683298 -27.477124 -7.058510 -12.429362 20.053795 0.918902 -19.784504 5.666940 79.375005 57.606388 -24.598200 3.532099 1.957525 -5.073551 -10.878335 -6.256211 -2.853163 -7.885428 4.980732 -7.283620 -68.705865 -42.872345 -21.966083 -17.389159 -9.151225 -4.687856 13.754810 -2.877444 -52.129049 6.563078 0.932455 23.399595 0.362555 -4.344031 -12.131811 3.340057 0.005283 0.109192 -0.082927 6.899764 -34.128173 0.174399 13.134606 79.951724 12.314947 13.061800 21.808278 7.135265 0.000000 0.000000 0.000000
123.451274 95.519893 1203.373641 -0.217440 23.802626 -0.844471 -0.431156 4.382222 1.498263 -0.273750 -3.879723 0.670582 -0.273353 1.940572 0.642733 -0.157590 7.291552 0.486595 4.496846 4.290224 -2.146875 10.470428 -27.673034 -7.012028 -11.867508 19.894403 1.405093 -19.255238 5.412692 80.212184 58.059430 -24.947353 3.207230 1.979417 -4.941138 -10.751454 -6.295272 -2.463623 -8.123670 4.080162 -7.177999 -69.106333 -39.811477 -21.076277 -17.005380 -8.766308 -5.645181 14.160927 -2.031492 -51.391451 5.705084 0.835288 23.721275 0.577325 -4.950639 -11.236630 2.101064 0.006706 0.149255 -0.113442 7.028332 -35.782829 0.228874 14.800754 81.351706 14.520365 14.123413 20.486625 9.029696 -0.000000 0.000000 0.000000
123.576683 95.217987 1205.062347 0.403617 23.747479 -0.611736 -0.493098 4.414177 1.471083 -0.299927 -3.865681 0.659087 -0.299491 1.954604 0.628579 -0.178238 7.302061 0.475996 4.383938 4.195177 -2.147623 10.254743 -27.861329 -6.964028 -11.268176 19.672288 1.903706 -18.687091 5.167146 81.001161 58.516748 -25.275261 2.881631 1.985553 -4.796330 -10.605313 -6.338468 -2.075943 -8.361819 3.185191 -7.053360 -69.491519 -36.720398 -20.203841 -16.589024 -8.341473 -6.635647 14.487020 -1.180719 -50.637596 4.831935 0.746420 24.098281 0.830755 -5.606444 -10.339505 0.860467 0.007600 0.184216 -0.140057 7.164084 -37.468479 0.259620 16.750068 82.645074 17.025741 15.067871 19.104642 10.870563 -0.000000 0.000000 0.000000
123.707721 94.913116 1206.753314 1.002709 23.693154 -0.383237 -0.544757 4.436522 1.440991 -0.321336 -3.855860 0.646207 -0.320866 1.964425 0.613529 -0.195378 7.309426 0.464703 4.273284 4.103079 -2.148995 10.043240 -28.043863 -6.917734 -10.639823 19.380993 2.408455 -18.083450 4.923735 81.722473 58.978726 -25.571138 2.560438 1.978153 -4.643083 -10.441267 -6.382396 -1.692288 -8.596090 2.341928 -6.895542 -69.865521 -33.652119 -19.359972 -16.165396 -7.867761 -7.615478 14.701885 -0.385981 -49.868346 3.997219 0.689424 24.521289 1.111686 -6.290007 -9.484024 -0.340786 0.007843 0.208961 -0.158874 7.307561 -39.171079 0.266805 19.046955 83.819124 19.871723 15.869509 17.693229 12.613018 -0.000000 0.000000 -0.000000
